<svg width="10" height="20" viewBox="0 0 10 20" fill="none" xmlns="http://www.w3.org/2000/svg">
<path d="M7.35938 13.3379C7.35938 12.7389 7.14779 12.2344 6.72461 11.8242C6.30794 11.4141 5.60156 11.043 4.60547 10.7109C3.21875 10.2878 2.20638 9.73763 1.56836 9.06055C0.936849 8.37695 0.621094 7.51107 0.621094 6.46289C0.621094 5.39518 0.930339 4.51953 1.54883 3.83594C2.17383 3.15234 3.02995 2.74544 4.11719 2.61523V0.476562H5.57227V2.625C6.66602 2.77474 7.51562 3.23372 8.12109 4.00195C8.73307 4.77018 9.03906 5.82161 9.03906 7.15625H7.24219C7.24219 6.23828 7.02409 5.50911 6.58789 4.96875C6.15169 4.42839 5.5625 4.1582 4.82031 4.1582C4.04557 4.1582 3.45312 4.36003 3.04297 4.76367C2.63281 5.16081 2.42773 5.71745 2.42773 6.43359C2.42773 7.09766 2.64258 7.62826 3.07227 8.02539C3.50846 8.41602 4.22135 8.77409 5.21094 9.09961C6.20703 9.41862 6.98177 9.77344 7.53516 10.1641C8.09505 10.5482 8.50521 10.9974 8.76562 11.5117C9.03255 12.026 9.16602 12.6283 9.16602 13.3184C9.16602 14.4186 8.83398 15.304 8.16992 15.9746C7.51237 16.6452 6.58789 17.0423 5.39648 17.166V19.0312H3.95117V17.166C2.74023 17.0553 1.78971 16.6257 1.09961 15.877C0.416016 15.1217 0.0742188 14.0996 0.0742188 12.8105H1.88086C1.88086 13.7155 2.11849 14.4121 2.59375 14.9004C3.06901 15.3887 3.74284 15.6328 4.61523 15.6328C5.4681 15.6328 6.13867 15.4277 6.62695 15.0176C7.11523 14.6074 7.35938 14.0475 7.35938 13.3379Z" fill="black"/>
</svg>
