<svg width="20" height="20" viewBox="0 0 15 17" fill="none" xmlns="http://www.w3.org/2000/svg">
<path d="M7.49999 0C3.35625 0 0 3.90255 0 8.7157C0 12.5672 2.14875 15.8334 5.12812 16.985C5.50312 17.067 5.64062 16.7972 5.64062 16.5659C5.64062 16.3589 5.63437 15.8105 5.63124 15.084C3.545 15.6095 3.105 13.9147 3.105 13.9147C2.76375 12.9087 2.27062 12.6397 2.27062 12.6397C1.59125 12.0994 2.32312 12.1105 2.32312 12.1105C3.07625 12.1711 3.47187 13.0085 3.47187 13.0085C4.14062 14.3411 5.22749 13.9561 5.65624 13.7336C5.72374 13.1696 5.91687 12.786 6.13124 12.568C4.46562 12.3499 2.715 11.6005 2.715 8.26114C2.715 7.30989 3.00562 6.53234 3.48687 5.92256C3.4025 5.70231 3.14937 4.8161 3.5525 3.61577C3.5525 3.61577 4.18062 3.38221 5.61499 4.50937C6.21499 4.31572 6.85249 4.21963 7.48999 4.2152C8.12749 4.21963 8.76499 4.31572 9.36499 4.50937C10.79 3.38221 11.4181 3.61577 11.4181 3.61577C11.8212 4.8161 11.5681 5.70231 11.4931 5.92256C11.9712 6.53234 12.2619 7.30989 12.2619 8.26114C12.2619 11.6093 10.5087 12.3463 8.83999 12.5606C9.10249 12.8222 9.34624 13.3566 9.34624 14.1734C9.34624 15.3397 9.33687 16.2769 9.33687 16.56C9.33687 16.7884 9.46811 17.0611 9.85249 16.9739C12.8531 15.8297 15 12.5613 15 8.7157C15 3.90255 11.6419 0 7.49999 0Z" fill="#9090AB"/>
</svg>
