<svg width="20" height="20" viewBox="0 0 14 17" fill="none" xmlns="http://www.w3.org/2000/svg">
<path d="M13.8404 16.6125V16.6119H13.8439V10.5192C13.8439 7.53866 13.3092 5.24268 10.4055 5.24268C9.00954 5.24268 8.07278 6.1619 7.69035 7.03337H7.64997V5.52094H4.89679V16.6119H7.7636V11.12C7.7636 9.67406 7.99203 8.27584 9.48427 8.27584C10.9546 8.27584 10.9765 9.92602 10.9765 11.2128V16.6125H13.8404Z" fill="#9090AB"/>
<path d="M0.22876 5.52161H3.09903V16.6125H0.22876V5.52161Z" fill="#9090AB"/>
<path d="M1.6624 0C0.744676 0 0 0.89362 0 1.9949C0 3.09617 0.744676 4.00848 1.6624 4.00848C2.58012 4.00848 3.3248 3.09617 3.3248 1.9949C3.32422 0.89362 2.57955 0 1.6624 0V0Z" fill="#9090AB"/>
</svg>
