<svg width="20" height="20" viewBox="0 0 14 16" fill="none" xmlns="http://www.w3.org/2000/svg">
<path d="M12.7918 9.33569C12.7875 9.36388 12.7802 9.31024 12.7918 9.33569C12.8601 8.88499 12.8961 8.42382 12.8961 7.96275C12.8961 6.94036 12.7306 5.94862 12.4037 5.01482C12.0881 4.11294 11.6368 3.30298 11.0614 2.60756C10.4869 1.91203 9.81674 1.36628 9.07137 0.984796C8.29961 0.589801 7.47954 0.389611 6.63428 0.389611C6.2359 0.389611 5.83687 0.434837 5.44852 0.525094C5.44771 0.52529 5.44561 0.525584 5.44561 0.525584C4.91278 0.182961 4.31367 0 3.70711 0C2.7169 0 1.78593 0.466359 1.0858 1.31342C0.385758 2.16019 0 3.28624 0 4.48376C0 5.24605 0.162203 5.99541 0.466373 6.65746C0.404697 7.08652 0.372079 7.52498 0.372079 7.96275C0.372079 8.98533 0.5376 9.97698 0.864595 10.9109C1.17961 11.8131 1.63109 12.6225 2.20601 13.318C2.7814 14.0135 3.45061 14.5601 4.19679 14.9406C4.96863 15.3364 5.78895 15.5367 6.6342 15.5367C7.00216 15.5367 7.37092 15.496 7.73093 15.4188C8.28553 15.7983 8.91346 16 9.55466 16C10.5446 16 11.4752 15.5345 12.1754 14.6871C12.8757 13.8408 13.2611 12.7145 13.2611 11.517C13.2611 10.7522 13.0981 10.0004 12.7918 9.33569ZM6.65921 12.601C4.43459 12.601 3.43928 11.2783 3.43928 10.2868C3.43928 9.77846 3.74968 9.42193 4.17745 9.42193C5.12954 9.42193 4.883 11.0752 6.65921 11.0752C7.56857 11.0752 8.07064 10.4781 8.07064 9.86705C8.07064 9.49946 7.92074 9.09204 7.32195 8.91358L5.3433 8.31614C3.74968 7.83285 3.46057 6.79088 3.46057 5.81147C3.46057 3.77796 5.04366 3.01449 6.53028 3.01449C7.89977 3.01449 9.51411 3.92988 9.51411 5.14982C9.51411 5.67256 9.13985 5.97652 8.71224 5.97652C7.89977 5.97652 8.04919 4.6164 6.41259 4.6164C5.60053 4.6164 5.15066 5.06123 5.15066 5.69762C5.15066 6.33294 5.79211 6.53587 6.34897 6.68927L7.81357 7.0825C9.41787 7.5148 9.8246 8.64761 9.8246 9.71463C9.82476 11.3671 8.77594 12.601 6.65921 12.601Z" fill="#9090AB"/>
</svg>
