<svg width="20" height="20" viewBox="0 0 14 15" fill="none" xmlns="http://www.w3.org/2000/svg">
<path d="M0.244522 6.93543L3.4344 8.36411L4.66908 13.129C4.74808 13.4341 5.05906 13.5469 5.26547 13.3444L7.04356 11.605C7.22995 11.4228 7.49543 11.4137 7.69021 11.5833L10.8973 14.3774C11.1181 14.57 11.4309 14.4248 11.4863 14.1046L13.8356 0.543754C13.896 0.194005 13.6097 -0.0977669 13.3321 0.0310357L0.240784 6.09135C-0.0822834 6.24086 -0.0794685 6.78974 0.244522 6.93543ZM4.4701 7.60359L10.7043 2.99599C10.8164 2.91342 10.9316 3.09522 10.8354 3.20232L5.69038 8.94139C5.50954 9.1434 5.39288 9.41374 5.35984 9.70718L5.18458 11.2658C5.16137 11.4739 4.91776 11.4945 4.86991 11.2931L4.19586 8.45099C4.11865 8.12683 4.23116 7.78057 4.4701 7.60359Z" fill="#9090AB"/>
</svg>
