<svg width="50" height="50" viewBox="0 0 50 50" fill="none" xmlns="http://www.w3.org/2000/svg">
<path d="M50 25C50 38.7858 38.7858 50 25 50C11.2142 50 -5.57452e-07 38.7858 0 25C5.57452e-07 11.2142 11.2161 -6.51309e-07 25 0C38.7839 6.51309e-07 50 11.2142 50 25ZM3.87295 25C3.87295 36.6479 13.3501 46.1271 25 46.1271C36.6499 46.1271 46.1271 36.6479 46.1271 25C46.1271 13.3501 36.6499 3.87295 25 3.87295C13.3501 3.87295 3.87295 13.352 3.87295 25Z" fill="#3AB67D"/>
<path d="M22.3273 13.9429L32.0097 23.6253C32.7611 24.3806 32.7611 25.6005 32.0097 26.3558L22.3273 36.0382C21.6031 36.6598 20.5322 36.6598 19.808 36.0382C18.9965 35.343 18.9017 34.1192 19.5969 33.3077L27.9043 25.0002L19.5968 16.6734C18.8455 15.9181 18.8455 14.6982 19.5968 13.9429C20.3521 13.1915 21.5721 13.1915 22.3273 13.9429Z" fill="#3AB67D"/>
</svg>
