<svg width="50" height="50" viewBox="0 0 50 50" fill="none" xmlns="http://www.w3.org/2000/svg">
<path d="M50 25C50 11.2142 38.7858 0 25 0C11.2142 0 -5.57452e-07 11.2142 0 25C5.57452e-07 38.7858 11.2161 50 25 50C38.7839 50 50 38.7858 50 25ZM3.87295 25C3.87295 13.3521 13.3501 3.87295 25 3.87295C36.6499 3.87295 46.1271 13.3521 46.1271 25C46.1271 36.6499 36.6499 46.1271 25 46.1271C13.3501 46.1271 3.87295 36.648 3.87295 25Z" fill="#989898"/>
<path d="M22.3273 36.0571L32.0097 26.3747C32.7611 25.6194 32.7611 24.3995 32.0097 23.6442L22.3273 13.9618C21.6031 13.3402 20.5322 13.3402 19.808 13.9618C18.9965 14.657 18.9017 15.8808 19.5969 16.6923L27.9043 24.9998L19.5968 33.3266C18.8455 34.0819 18.8455 35.3018 19.5968 36.0571C20.3521 36.8085 21.5721 36.8085 22.3273 36.0571Z" fill="#989898"/>
</svg>
