<svg width="50" height="50" viewBox="0 0 50 50" fill="none" xmlns="http://www.w3.org/2000/svg">
<path d="M0 25C0 38.7858 11.2142 50 25 50C38.7858 50 50 38.7858 50 25C50 11.2142 38.7839 -6.51309e-07 25 0C11.2161 6.51309e-07 0 11.2142 0 25ZM46.1271 25C46.1271 36.6479 36.6499 46.1271 25 46.1271C13.3501 46.1271 3.87295 36.6479 3.87295 25C3.87295 13.3501 13.3501 3.87295 25 3.87295C36.6499 3.87295 46.1271 13.352 46.1271 25Z" fill="#989898"/>
<path d="M27.6727 13.9429L17.9903 23.6253C17.2389 24.3806 17.2389 25.6005 17.9903 26.3558L27.6727 36.0382C28.3969 36.6598 29.4678 36.6598 30.192 36.0382C31.0035 35.343 31.0983 34.1192 30.4031 33.3077L22.0957 25.0002L30.4032 16.6734C31.1545 15.9181 31.1545 14.6982 30.4032 13.9429C29.6479 13.1915 28.4279 13.1915 27.6727 13.9429Z" fill="#989898"/>
</svg>
