<svg width="18" height="17" viewBox="0 0 18 17" fill="none" xmlns="http://www.w3.org/2000/svg">
<path d="M9.56479 0.330995C9.46933 0.128316 9.27234 0 9.05664 0C8.84094 0 8.64395 0.128316 8.54849 0.330995L6.2287 5.25636L1.04189 6.04562C0.828421 6.0781 0.651066 6.23476 0.5844 6.44972C0.517734 6.66468 0.573319 6.90066 0.727782 7.05843L4.4811 10.8921L3.59482 16.3058C3.55836 16.5286 3.64575 16.7538 3.82025 16.8866C3.99476 17.0195 4.22611 17.037 4.41704 16.9318L9.05664 14.3758L13.6962 16.9318C13.8872 17.037 14.1185 17.0195 14.293 16.8866C14.4675 16.7538 14.5549 16.5286 14.5185 16.3058L13.6322 10.8921L17.3855 7.05843C17.54 6.90066 17.5955 6.66468 17.5289 6.44972C17.4622 6.23476 17.2849 6.0781 17.0714 6.04562L11.8846 5.25636L9.56479 0.330995Z" fill="#EB9E47"/>
</svg>
