<svg width="65" height="17" viewBox="0 0 65 17" fill="none" xmlns="http://www.w3.org/2000/svg">
<path d="M9.56577 0.330995C9.47031 0.128316 9.27332 0 9.05762 0C8.84192 0 8.64493 0.128316 8.54947 0.330995L6.22967 5.25636L1.04286 6.04562C0.829397 6.0781 0.652043 6.23476 0.585376 6.44972C0.51871 6.66468 0.574295 6.90066 0.728759 7.05843L4.48208 10.8921L3.5958 16.3058C3.55933 16.5286 3.64672 16.7538 3.82123 16.8866C3.99574 17.0195 4.22709 17.037 4.41801 16.9318L9.05762 14.3758L13.6972 16.9318C13.8881 17.037 14.1195 17.0195 14.294 16.8866C14.4685 16.7538 14.5559 16.5286 14.5194 16.3058L13.6332 10.8921L17.3865 7.05843C17.5409 6.90066 17.5965 6.66468 17.5299 6.44972C17.4632 6.23476 17.2858 6.0781 17.0724 6.04562L11.8856 5.25636L9.56577 0.330995Z" fill="#EB9E47"/>
<path d="M33.1214 0.330995C33.026 0.128316 32.829 0 32.6133 0C32.3976 0 32.2006 0.128316 32.1051 0.330995L29.7853 5.25636L24.5985 6.04562C24.3851 6.0781 24.2077 6.23476 24.141 6.44972C24.0744 6.66468 24.13 6.90066 24.2844 7.05843L28.0377 10.8921L27.1515 16.3058C27.115 16.5286 27.2024 16.7538 27.3769 16.8866C27.5514 17.0195 27.7828 17.037 27.9737 16.9318L32.6133 14.3758L37.2529 16.9318C37.4438 17.037 37.6752 17.0195 37.8497 16.8866C38.0242 16.7538 38.1116 16.5286 38.0751 16.3058L37.1888 10.8921L40.9421 7.05843C41.0966 6.90066 41.1522 6.66468 41.0855 6.44972C41.0189 6.23476 40.8415 6.0781 40.628 6.04562L35.4412 5.25636L33.1214 0.330995Z" fill="#EB9E47"/>
<path d="M56.6781 0.330995C56.5826 0.128316 56.3856 0 56.1699 0C55.9542 0 55.7572 0.128316 55.6618 0.330995L53.342 5.25636L48.1552 6.04562C47.9417 6.0781 47.7643 6.23476 47.6977 6.44972C47.631 6.66468 47.6866 6.90066 47.8411 7.05843L51.5944 10.8921L50.7081 16.3058C50.6716 16.5286 50.759 16.7538 50.9335 16.8866C51.108 17.0195 51.3394 17.037 51.5303 16.9318L56.1699 14.3758L60.8095 16.9318C61.0004 17.037 61.2318 17.0195 61.4063 16.8866C61.5808 16.7538 61.6682 16.5286 61.6317 16.3058L60.7455 10.8921L64.4988 7.05843C64.6532 6.90066 64.7088 6.66468 64.6422 6.44972C64.5755 6.23476 64.3981 6.0781 64.1847 6.04562L58.9979 5.25636L56.6781 0.330995Z" fill="#EB9E47"/>
</svg>
