<svg width="89" height="17" viewBox="0 0 89 17" fill="none" xmlns="http://www.w3.org/2000/svg">
<path d="M9.56479 0.330995C9.46933 0.128316 9.27234 0 9.05664 0C8.84094 0 8.64395 0.128316 8.54849 0.330995L6.2287 5.25636L1.04189 6.04562C0.828421 6.0781 0.651066 6.23476 0.5844 6.44972C0.517734 6.66468 0.573319 6.90066 0.727782 7.05843L4.4811 10.8921L3.59482 16.3058C3.55836 16.5286 3.64575 16.7538 3.82025 16.8866C3.99476 17.0195 4.22611 17.037 4.41704 16.9318L9.05664 14.3758L13.6962 16.9318C13.8872 17.037 14.1185 17.0195 14.293 16.8866C14.4675 16.7538 14.5549 16.5286 14.5185 16.3058L13.6322 10.8921L17.3855 7.05843C17.54 6.90066 17.5955 6.66468 17.5289 6.44972C17.4622 6.23476 17.2849 6.0781 17.0714 6.04562L11.8846 5.25636L9.56479 0.330995Z" fill="#EB9E47"/>
<path d="M33.1224 0.330995C33.0269 0.128316 32.83 0 32.6143 0C32.3986 0 32.2016 0.128316 32.1061 0.330995L29.7863 5.25636L24.5995 6.04562C24.386 6.0781 24.2087 6.23476 24.142 6.44972C24.0754 6.66468 24.1309 6.90066 24.2854 7.05843L28.0387 10.8921L27.1524 16.3058C27.116 16.5286 27.2034 16.7538 27.3779 16.8866C27.5524 17.0195 27.7837 17.037 27.9747 16.9318L32.6143 14.3758L37.2539 16.9318C37.4448 17.037 37.6761 17.0195 37.8506 16.8866C38.0252 16.7538 38.1125 16.5286 38.0761 16.3058L37.1898 10.8921L40.9431 7.05843C41.0976 6.90066 41.1532 6.66468 41.0865 6.44972C41.0198 6.23476 40.8425 6.0781 40.629 6.04562L35.4422 5.25636L33.1224 0.330995Z" fill="#EB9E47"/>
<path d="M56.6781 0.330995C56.5826 0.128316 56.3856 0 56.1699 0C55.9542 0 55.7572 0.128316 55.6618 0.330995L53.342 5.25636L48.1552 6.04562C47.9417 6.0781 47.7643 6.23476 47.6977 6.44972C47.631 6.66468 47.6866 6.90066 47.8411 7.05843L51.5944 10.8921L50.7081 16.3058C50.6716 16.5286 50.759 16.7538 50.9335 16.8866C51.108 17.0195 51.3394 17.037 51.5303 16.9318L56.1699 14.3758L60.8095 16.9318C61.0004 17.037 61.2318 17.0195 61.4063 16.8866C61.5808 16.7538 61.6682 16.5286 61.6317 16.3058L60.7455 10.8921L64.4988 7.05843C64.6532 6.90066 64.7088 6.66468 64.6422 6.44972C64.5755 6.23476 64.3981 6.0781 64.1847 6.04562L58.9979 5.25636L56.6781 0.330995Z" fill="#EB9E47"/>
<path d="M80.2347 0.330995C80.1393 0.128316 79.9423 0 79.7266 0C79.5109 0 79.3139 0.128316 79.2184 0.330995L76.8986 5.25636L71.7118 6.04562C71.4983 6.0781 71.321 6.23476 71.2543 6.44972C71.1877 6.66468 71.2432 6.90066 71.3977 7.05843L75.151 10.8921L74.2647 16.3058C74.2283 16.5286 74.3157 16.7538 74.4902 16.8866C74.6647 17.0195 74.896 17.037 75.087 16.9318L79.7266 14.3758L84.3662 16.9318C84.5571 17.037 84.7884 17.0195 84.963 16.8866C85.1375 16.7538 85.2248 16.5286 85.1884 16.3058L84.3021 10.8921L88.0554 7.05843C88.2099 6.90066 88.2655 6.66468 88.1988 6.44972C88.1321 6.23476 87.9548 6.0781 87.7413 6.04562L82.5545 5.25636L80.2347 0.330995Z" fill="#EB9E47"/>
</svg>
