<svg width="42" height="17" viewBox="0 0 42 17" fill="none" xmlns="http://www.w3.org/2000/svg">
<path d="M9.56382 0.330995C9.46836 0.128316 9.27136 0 9.05566 0C8.83997 0 8.64297 0.128316 8.54751 0.330995L6.22772 5.25636L1.04091 6.04562C0.827444 6.0781 0.650089 6.23476 0.583423 6.44972C0.516757 6.66468 0.572342 6.90066 0.726806 7.05843L4.48013 10.8921L3.59385 16.3058C3.55738 16.5286 3.64477 16.7538 3.81928 16.8866C3.99378 17.0195 4.22514 17.037 4.41606 16.9318L9.05566 14.3758L13.6953 16.9318C13.8862 17.037 14.1175 17.0195 14.2921 16.8866C14.4666 16.7538 14.554 16.5286 14.5175 16.3058L13.6312 10.8921L17.3845 7.05843C17.539 6.90066 17.5946 6.66468 17.5279 6.44972C17.4612 6.23476 17.2839 6.0781 17.0704 6.04562L11.8836 5.25636L9.56382 0.330995Z" fill="#EB9E47"/>
<path d="M33.1205 0.330995C33.025 0.128316 32.828 0 32.6123 0C32.3966 0 32.1996 0.128316 32.1042 0.330995L29.7844 5.25636L24.5976 6.04562C24.3841 6.0781 24.2067 6.23476 24.1401 6.44972C24.0734 6.66468 24.129 6.90066 24.2834 7.05843L28.0368 10.8921L27.1505 16.3058C27.114 16.5286 27.2014 16.7538 27.3759 16.8866C27.5504 17.0195 27.7818 17.037 27.9727 16.9318L32.6123 14.3758L37.2519 16.9318C37.4428 17.037 37.6742 17.0195 37.8487 16.8866C38.0232 16.7538 38.1106 16.5286 38.0741 16.3058L37.1878 10.8921L40.9412 7.05843C41.0956 6.90066 41.1512 6.66468 41.0845 6.44972C41.0179 6.23476 40.8405 6.0781 40.6271 6.04562L35.4403 5.25636L33.1205 0.330995Z" fill="#EB9E47"/>
</svg>
