<svg width="112" height="17" viewBox="0 0 112 17" fill="none" xmlns="http://www.w3.org/2000/svg">
<path d="M9.00815 0.330995C8.91269 0.128316 8.7157 0 8.5 0C8.2843 0 8.08731 0.128316 7.99185 0.330995L5.67205 5.25636L0.485247 6.04562C0.27178 6.0781 0.0944253 6.23476 0.0277592 6.44972C-0.038907 6.66468 0.0166782 6.90066 0.171142 7.05843L3.92446 10.8921L3.03818 16.3058C3.00171 16.5286 3.08911 16.7538 3.26361 16.8866C3.43812 17.0195 3.66947 17.037 3.8604 16.9318L8.5 14.3758L13.1396 16.9318C13.3305 17.037 13.5619 17.0195 13.7364 16.8866C13.9109 16.7538 13.9983 16.5286 13.9618 16.3058L13.0755 10.8921L16.8289 7.05843C16.9833 6.90066 17.0389 6.66468 16.9722 6.44972C16.9056 6.23476 16.7282 6.0781 16.5148 6.04562L11.3279 5.25636L9.00815 0.330995Z" fill="#EB9E47"/>
<path d="M32.5648 0.330995C32.4693 0.128316 32.2723 0 32.0566 0C31.8409 0 31.6439 0.128316 31.5485 0.330995L29.2287 5.25636L24.0419 6.04562C23.8284 6.0781 23.6511 6.23476 23.5844 6.44972C23.5177 6.66468 23.5733 6.90066 23.7278 7.05843L27.4811 10.8921L26.5948 16.3058C26.5584 16.5286 26.6457 16.7538 26.8203 16.8866C26.9948 17.0195 27.2261 17.037 27.417 16.9318L32.0566 14.3758L36.6962 16.9318C36.8872 17.037 37.1185 17.0195 37.293 16.8866C37.4675 16.7538 37.5549 16.5286 37.5185 16.3058L36.6322 10.8921L40.3855 7.05843C40.54 6.90066 40.5955 6.66468 40.5289 6.44972C40.4622 6.23476 40.2849 6.0781 40.0714 6.04562L34.8846 5.25636L32.5648 0.330995Z" fill="#EB9E47"/>
<path d="M56.1224 0.330995C56.0269 0.128316 55.83 0 55.6143 0C55.3986 0 55.2016 0.128316 55.1061 0.330995L52.7863 5.25636L47.5995 6.04562C47.386 6.0781 47.2087 6.23476 47.142 6.44972C47.0754 6.66468 47.1309 6.90066 47.2854 7.05843L51.0387 10.8921L50.1524 16.3058C50.116 16.5286 50.2034 16.7538 50.3779 16.8866C50.5524 17.0195 50.7837 17.037 50.9747 16.9318L55.6143 14.3758L60.2539 16.9318C60.4448 17.037 60.6761 17.0195 60.8506 16.8866C61.0252 16.7538 61.1125 16.5286 61.0761 16.3058L60.1898 10.8921L63.9431 7.05843C64.0976 6.90066 64.1532 6.66468 64.0865 6.44972C64.0198 6.23476 63.8425 6.0781 63.629 6.04562L58.4422 5.25636L56.1224 0.330995Z" fill="#EB9E47"/>
<path d="M79.6781 0.330995C79.5826 0.128316 79.3856 0 79.1699 0C78.9542 0 78.7572 0.128316 78.6618 0.330995L76.342 5.25636L71.1552 6.04562C70.9417 6.0781 70.7643 6.23476 70.6977 6.44972C70.631 6.66468 70.6866 6.90066 70.8411 7.05843L74.5944 10.8921L73.7081 16.3058C73.6716 16.5286 73.759 16.7538 73.9335 16.8866C74.108 17.0195 74.3394 17.037 74.5303 16.9318L79.1699 14.3758L83.8095 16.9318C84.0004 17.037 84.2318 17.0195 84.4063 16.8866C84.5808 16.7538 84.6682 16.5286 84.6317 16.3058L83.7455 10.8921L87.4988 7.05843C87.6532 6.90066 87.7088 6.66468 87.6422 6.44972C87.5755 6.23476 87.3981 6.0781 87.1847 6.04562L81.9979 5.25636L79.6781 0.330995Z" fill="#EB9E47"/>
<path d="M103.235 0.330995C103.139 0.128316 102.942 0 102.727 0C102.511 0 102.314 0.128316 102.218 0.330995L99.8986 5.25636L94.7118 6.04562C94.4983 6.0781 94.321 6.23476 94.2543 6.44972C94.1877 6.66468 94.2432 6.90066 94.3977 7.05843L98.151 10.8921L97.2647 16.3058C97.2283 16.5286 97.3157 16.7538 97.4902 16.8866C97.6647 17.0195 97.896 17.037 98.087 16.9318L102.727 14.3758L107.366 16.9318C107.557 17.037 107.788 17.0195 107.963 16.8866C108.137 16.7538 108.225 16.5286 108.188 16.3058L107.302 10.8921L111.055 7.05843C111.21 6.90066 111.265 6.66468 111.199 6.44972C111.132 6.23476 110.955 6.0781 110.741 6.04562L105.555 5.25636L103.235 0.330995Z" fill="#EB9E47"/>
</svg>
